<svg xmlns="http://www.w3.org/2000/svg" viewBox="0 0 3383.17 682.4"><g id="Layer_2" data-name="Layer 2"><g id="Layer_1-2" data-name="Layer 1"><path d="M341.1,333.73s130.52,28.44,130.48,159.44c0,150.88-170.46,173.43-286.32,173.43L0,666.3c32.42-37.24,34-93.24,34-101.06V143.31c-.08-7.78-1.63-63.83-34-101.06H258.88s166.45.85,166.45,136.89c0,107.11-55.59,137.23-84.23,154.59ZM153.4,322.9S312,343.63,312,185.56c0-93.39-145.64-83.15-158.62-83.15ZM349.82,496.73c-.66-135.81-108.12-136.3-196.38-136.41V600.06h1c12.8,0,32.35,1.52,54.15,1.52,61.5,0,141.27-12.09,141.27-104.07Z"/><path d="M864.54,550.48c0,8,1.45,52.66,32.23,77.14l-97.61,41.8S760,659.85,760,609.29V593.61c-17.44,18.32-80.19,81.08-129.85,81.08-54.53,0-141-91.36-141-154.78,0-19.65,8.35-36.68,28.6-47.43C595.28,432.42,695.5,382.72,754.76,354c1.63-19.54-4.63-92.38-32.27-92.38-54,0-105.44,43.58-130.69,95.88l-44.48-109c51.52-50.17,125.48-58,191.72-32.15,123.87,48.37,125.5,115.46,125.5,132.45V550.48ZM760,564.83l-4.38-178.66c-13.09,7.86-42.69,26.15-115.9,70.58-24.11,14.87-33.53,36.61-33.53,57.41,0,28.08,17.21,54.38,38.76,59.42,11,2.49,24.11,3.56,37.61,3.56C711.85,577.14,743.27,572.06,760,564.83Z"/><path d="M1276.38,237.89l-88.05,109.82s-21.25-47.25-77-47.25c-15.7,0-34.09,3.71-55.49,13.24l.85,248.75c0,4.49.82,52.82,34,106H918.18c32-38.91,34-91.13,34-103.59l0-218.86s-2.07-53.6-34-80.19l137.67-62.71v81c18.32-21.77,73.21-79.29,142.94-79.29C1257.16,204.81,1276.34,237.92,1276.38,237.89Z"/><path d="M1593,610.07s-34.86,71.48-158.63,71.48c-92.19,0-121.16-76.52-120.31-116.87.81-40.13,10.5-297.11,10.5-297.11H1281l146.42-149.92V223.12h106.33l-16.53,44.45h-88V568.24C1429.14,639.15,1568.92,619.64,1593,610.07Z"/><path d="M1600.76,81.08,1685.28,0c30.52,57.49,80.19,82.79,80.19,82.79l-81.93,88C1627.76,139.46,1600.76,81,1600.76,81.08Zm2.63,588.26c32-38.9,34-91.12,34-103.58l0-212.78s0-52.26-34-80.16l137.71-62.75.86,353.31c0,4.49.78,52.81,34,106Z"/><path d="M2238.9,668.66H2076.72c31.71-79.26,33.15-103,33.15-106.67V366.24s0-70-98.14-70c-20.58,0-44.76,4.64-74.39,17.69l1.74,248.39c0,5.22.85,53.15,34,106.33H1800.51c32-38.91,34-91.13,34-103.59q0-108.54,0-217.11s0-49.7-34-80.2c0-1.25,136-62.71,136-62.71v84.53c18.33-16.55,102.63-84.53,163.86-84.53s104.59,35.45,104.59,116.6.71,162.34.71,243.49c0,10.57,2.89,44.14,33.26,103.56ZM1919.72,100.31c-48.44,0-79.52,27.63-79.52,27.63s32-52.77,59.26-78.4c16.22-15.32,36.91-27,62.87-27,20.85,0,45.1,7.61,73.07,27.05,31.52,21.88,60.23,29.15,84.48,29.15,48.56,0,79.37-29.15,79.37-29.15s-24.4,44.46-53.18,73.21c-17.43,17.43-39.53,32.45-68.76,32.45-20.4,0-44.28-7.34-72.4-26.37C1973.23,107.47,1944.24,100.31,1919.72,100.31Z"/><path d="M2600.89,605.94c-7.82,9.56-49.67,75-149.92,75-113.26,0-188.22-75.82-188.22-242.27,0-132.33,58-228.36,189.11-228.36,102,0,141.21,65.39,141.21,65.39L2391.74,524s-.15,5.09,4.2,14.66c33.6,72.1,72.54,77,121.42,77C2545,615.66,2573.92,611,2600.89,605.94ZM2343.19,325c0,63.54,38.14,163.86,38.14,165,0,0,64.86-97.18,79.88-120.14,45.44-69.47-1.74-91.46-77.18-96C2353,272.06,2344.87,290,2343.19,325Z"/><path d="M2974.79,237.89l-88.05,109.82s-21.25-47.25-77-47.25c-15.7,0-34.09,3.71-55.49,13.24l.85,248.75c0,4.49.82,52.82,34,106H2616.58c32-38.91,34-91.13,34-103.59l0-218.86s-2.08-53.6-34-80.19l137.68-62.71v81c18.32-21.77,73.21-79.29,142.94-79.29C2955.57,204.81,2974.75,237.92,2974.79,237.89Z"/><path d="M3383.17,450.78c0,170-96.91,231.62-213.55,231.62-117.65,0-213.53-62.76-213.53-236.19C2956.09,271.94,3052,210,3169.62,210,3311.59,210,3383.13,316.56,3383.17,450.78ZM3281,573c0-75.55,1.71-148.95-33.42-218-31.41-61.79-92-79.11-159.07-79.56-27.23,0-37.54,16.06-37.54,44.36,0,75.14,9.87,146.8,41.28,216,29.2,64.31,84.38,90,152.11,90,22,.52,36.64-17,36.64-52.78Z"/></g></g></svg>